<svg width="20" height="20" viewBox="0 0 20 20" fill="none" xmlns="http://www.w3.org/2000/svg">
<path id="dashboard-icon" fill-rule="evenodd" clip-rule="evenodd" d="M7.22223 0H1.66667C0.746185 0 0 0.746193 0 1.66667V7.22222C0 8.1427 0.746185 8.88889 1.66667 8.88889H7.22223C8.1427 8.88889 8.88889 8.1427 8.88889 7.22222V1.66667C8.88889 0.746193 8.1427 0 7.22223 0ZM1.11111 1.66667C1.11111 1.35984 1.35985 1.11111 1.66667 1.11111H7.22223C7.52905 1.11111 7.77779 1.35984 7.77779 1.66667V7.22222C7.77779 7.52905 7.52905 7.77778 7.22223 7.77778H1.66667C1.35985 7.77778 1.11111 7.52905 1.11111 7.22222V1.66667ZM12.7778 1.11111C12.471 1.11111 12.2222 1.35984 12.2222 1.66667V7.22222C12.2222 7.52905 12.471 7.77778 12.7778 7.77778H18.3333C18.6402 7.77778 18.8889 7.52905 18.8889 7.22222V1.66667C18.8889 1.35984 18.6402 1.11111 18.3333 1.11111H12.7778ZM18.3333 0H12.7778C11.8573 0 11.1111 0.746193 11.1111 1.66667V7.22222C11.1111 8.1427 11.8573 8.88889 12.7778 8.88889H18.3333C19.2538 8.88889 20 8.1427 20 7.22222V1.66667C20 0.746193 19.2538 0 18.3333 0ZM1.66667 12.2222C1.35985 12.2222 1.11111 12.471 1.11111 12.7778V18.3333C1.11111 18.6402 1.35985 18.8889 1.66667 18.8889H7.22223C7.52905 18.8889 7.77779 18.6402 7.77779 18.3333V12.7778C7.77779 12.471 7.52905 12.2222 7.22223 12.2222H1.66667ZM7.22223 11.1111H1.66667C0.746185 11.1111 0 11.8573 0 12.7778V18.3333C0 19.2538 0.746185 20 1.66667 20H7.22223C8.1427 20 8.88889 19.2538 8.88889 18.3333V12.7778C8.88889 11.8573 8.1427 11.1111 7.22223 11.1111ZM12.7778 12.2222C12.471 12.2222 12.2222 12.471 12.2222 12.7778V18.3333C12.2222 18.6402 12.471 18.8889 12.7778 18.8889H18.3333C18.6402 18.8889 18.8889 18.6402 18.8889 18.3333V12.7778C18.8889 12.471 18.6402 12.2222 18.3333 12.2222H12.7778ZM18.3333 11.1111H12.7778C11.8573 11.1111 11.1111 11.8573 11.1111 12.7778V18.3333C11.1111 19.2538 11.8573 20 12.7778 20H18.3333C19.2538 20 20 19.2538 20 18.3333V12.7778C20 11.8573 19.2538 11.1111 18.3333 11.1111Z" fill="white"/>
</svg>
