<svg width="20" height="20" viewBox="0 0 20 20" fill="none" xmlns="http://www.w3.org/2000/svg">
<path id="invite-friends-icon" fill-rule="evenodd" clip-rule="evenodd" d="M16.627 3.52202H19.5182C19.7841 3.52202 20 3.74742 20 4.02516C20 4.30289 19.7841 4.52831 19.5182 4.52831H16.627V7.54716C16.627 7.82491 16.4111 8.05031 16.1452 8.05031C15.8792 8.05031 15.6633 7.82491 15.6633 7.54716V4.52831H12.7722C12.5062 4.52831 12.2903 4.30289 12.2903 4.02516C12.2903 3.74742 12.5062 3.52202 12.7722 3.52202H15.6633V0.503143C15.6633 0.225403 15.8792 0 16.1452 0C16.4111 0 16.627 0.225403 16.627 0.503143V3.52202ZM3.2184 7.35269C3.40826 7.86063 3.85542 9.01233 4.19392 9.54289L4.232 9.60352L4.23219 9.60384C4.50713 10.0419 5.01877 10.8571 6.62706 10.8571C8.23477 10.8571 8.74649 10.0423 9.02139 9.60452L9.06043 9.54289C9.39917 9.01257 9.8461 7.86063 10.036 7.35269C10.3467 7.2083 10.5638 6.88277 10.5638 6.5054V5.65634C10.5638 5.33031 10.4017 5.04301 10.1571 4.87747V4.59546C10.1571 2.55295 8.83733 1.33333 6.62706 1.33333C4.41678 1.33333 3.09699 2.55295 3.09699 4.59546V4.88226C2.85413 5.0498 2.69029 5.3376 2.69029 5.65634V6.5054C2.69054 6.88251 2.90761 7.20804 3.2184 7.35269ZM3.65425 5.72881C3.88457 5.69131 4.06093 5.48277 4.06093 5.2317V4.59521C4.06093 3.11949 4.94852 2.33937 6.62729 2.33937C8.30608 2.33937 9.19367 3.11949 9.19367 4.59521V5.2317C9.19367 5.48277 9.36978 5.69107 9.60034 5.72881V6.43221C9.43097 6.46013 9.28594 6.58113 9.22426 6.75246C9.06018 7.20956 8.56677 8.50163 8.25887 8.98415L8.21549 9.05232C7.99216 9.40805 7.71436 9.85057 6.62706 9.85057C5.53963 9.85057 5.26178 9.40804 5.03851 9.05241L5.03813 9.05182L4.99548 8.98441C4.68807 8.50214 4.19417 7.2093 4.02985 6.7522C3.96817 6.58063 3.82338 6.45987 3.65376 6.43195V5.72881H3.65425ZM1.43193 11.8385H11.8219C12.2809 11.8385 12.6943 12.0279 12.957 12.358C13.2106 12.677 13.3065 13.0961 13.227 13.5381C13.1168 14.1521 12.5664 14.72 12.2372 15.0597L12.2366 15.0604L12.1631 15.1366L8.12875 19.3492C7.75774 19.7363 7.26599 19.9643 6.73885 19.9947C6.71909 19.9977 6.69885 19.9995 6.67838 20H6.58707C6.56418 20 6.54152 19.9982 6.51961 19.995C5.99124 19.9658 5.49806 19.7376 5.12584 19.3494L1.01753 15.0604C0.688416 14.7207 0.137421 14.1522 0.0270697 13.5379C-0.0521845 13.0958 0.0439459 12.6767 0.297639 12.3575C0.560013 12.0277 0.973435 11.8385 1.43193 11.8385ZM12.2797 13.3527C12.2248 13.6579 11.7752 14.1218 11.5591 14.3444L7.44717 18.6375C7.23781 18.8561 6.95665 18.9819 6.65549 18.9914L6.65379 18.9915L6.65331 18.9915C6.64723 18.9918 6.64102 18.992 6.63501 18.9924H6.62706L6.62079 18.9927C6.61357 18.9922 6.60585 18.9917 6.59863 18.9914C6.29771 18.9819 6.01679 18.8561 5.80742 18.6377L1.77284 14.4252L1.69502 14.3447L1.69434 14.3439C1.47797 14.1208 1.02904 13.6578 0.974412 13.3532C0.95633 13.2523 0.952958 13.1092 1.03946 13.0007C1.118 12.9016 1.26111 12.845 1.43218 12.845H11.8222C11.9932 12.845 12.1366 12.9019 12.2154 13.001C12.3014 13.1089 12.2978 13.2518 12.2797 13.3527Z" transform="translate(-0.00038147)" fill="white"/>
</svg>
