<svg width="20" height="20" viewBox="0 0 20 20" fill="none" xmlns="http://www.w3.org/2000/svg">
<path id="log-out-icon" fill-rule="evenodd" clip-rule="evenodd" d="M8.86241 19.1714C9.46255 19.1714 10.001 18.3827 10.001 17.3505V16.9362H10.7641V17.3505C10.7641 18.7957 9.942 20 8.86241 20H1.90172C0.826324 20 0 18.7875 0 17.3505V2.64952C0 1.2043 0.822128 0 1.90172 0H8.86241C9.93781 0 10.7641 1.21252 10.7641 2.64952V3.06381H10.001V2.64952C10.001 1.62535 9.45799 0.828598 8.86241 0.828598H1.90172C1.30157 0.828598 0.763153 1.61732 0.763153 2.64952V17.3505C0.763153 18.3746 1.30614 19.1714 1.90172 19.1714H8.86241ZM14.1757 4.84798L18.0099 9.01103H6.09906V9.83963H18.773L18.9207 10L14.1757 15.152L14.7153 15.7379L19.4604 10.5859L20 10L19.4604 9.41409L14.7153 4.26207L14.1757 4.84798Z" fill="white"/>
</svg>
