<svg width="20" height="20" viewBox="0 0 20 20" fill="none" xmlns="http://www.w3.org/2000/svg">
<path id="settings-icon" fill-rule="evenodd" clip-rule="evenodd" d="M0.218204 13.8298L1.63254 16.1466C2.02954 16.8085 2.87319 17.0449 3.59276 16.7376L4.58528 16.3121C5.30486 16.8794 6.12368 17.3286 6.99213 17.6359L7.09139 18.6761C7.16582 19.4326 7.81096 20 8.60497 20H11.4088C12.2029 20 12.848 19.4326 12.9224 18.6761L13.0217 17.6359C13.8901 17.3286 14.709 16.8794 15.4285 16.3121L16.4211 16.7376C17.1406 17.0449 17.9843 16.8085 18.3813 16.1466L19.7956 13.8298C20.1926 13.1678 19.9941 12.3404 19.349 11.9149L18.4309 11.3239C18.5053 10.8983 18.555 10.4492 18.555 10C18.555 9.55083 18.5053 9.12529 18.4309 8.67612L19.3242 8.08511C19.9693 7.65958 20.1678 6.83215 19.7708 6.17021L18.3565 3.85342C17.9594 3.19148 17.1158 2.95508 16.3962 3.26241L15.4037 3.68794C14.6841 3.12057 13.8653 2.6714 12.9969 2.36406L12.8976 1.32388C12.8232 0.567383 12.178 0 11.384 0H8.58016C7.78615 0 7.14101 0.567383 7.06658 1.32388L6.96732 2.36406C6.09887 2.6714 5.28003 3.12057 4.56046 3.68794L3.56795 3.26241C2.84838 2.95508 2.00473 3.19148 1.60773 3.85342L0.193393 6.17021C-0.178814 6.83215 -0.00512363 7.63594 0.640018 8.08511L1.53328 8.67612C1.45885 9.10165 1.40921 9.55083 1.40921 10C1.40921 10.4492 1.45885 10.8747 1.53328 11.3239L0.640018 11.9149C-0.00512363 12.3641 -0.178814 13.1678 0.218204 13.8298ZM15 10C15 12.7638 12.7638 15 10 15C7.23618 15 5 12.7638 5 10C5 7.23618 7.26131 5 10 5C12.7387 5 15 7.23618 15 10ZM13.995 10C13.995 7.78894 12.211 6.00502 10 6.00502C7.78894 6.00502 6.00502 7.78894 6.00502 10C6.00502 12.211 7.81407 13.995 10 13.995C12.1859 13.995 13.995 12.211 13.995 10ZM2.64986 11.7494L1.23552 12.695C0.9874 12.8369 0.937778 13.1442 1.06183 13.357L2.501 15.6738C2.64986 15.9102 2.94762 16.0047 3.19574 15.8865L4.75896 15.2009L5.0071 15.4137C5.77629 16.052 6.64475 16.5485 7.61246 16.8558L7.91021 16.9503L8.05908 18.6052C8.0839 18.8889 8.30721 19.078 8.58016 19.078H11.4336C11.7066 19.078 11.9299 18.8652 11.9547 18.6052L12.1036 16.9503L12.4014 16.8558C13.3691 16.5485 14.2375 16.052 15.0067 15.4137L15.2548 15.2009L16.8181 15.8865C17.091 15.9811 17.3639 15.9102 17.5128 15.6738L18.8775 13.357C19.0264 13.1442 18.952 12.8369 18.7287 12.695L17.3143 11.7494L17.3888 11.4421C17.488 10.9693 17.5376 10.4964 17.5376 10C17.5376 9.50354 17.488 9.03073 17.3888 8.55792L17.3143 8.25058L18.7287 7.30496C18.952 7.16312 19.0264 6.87943 18.8775 6.64302L17.4632 4.32623C17.3143 4.08983 17.0166 3.99527 16.7684 4.11346L15.2052 4.79906L14.9571 4.58629C14.1879 3.94798 13.3194 3.45154 12.3517 3.14421L12.054 3.04964L11.9051 1.39479C11.8803 1.11111 11.657 0.921982 11.384 0.921982H8.58016C8.30721 0.921982 8.0839 1.13475 8.05908 1.39479L7.91021 3.04964L7.61246 3.14421C6.64475 3.45154 5.77629 3.94798 5.0071 4.58629L4.75896 4.79906L3.19574 4.11346C2.92281 4.01891 2.64986 4.08983 2.501 4.32623L1.08664 6.64302C0.937778 6.85579 1.01221 7.16312 1.23552 7.30496L2.64986 8.25058L2.57543 8.55792C2.47617 9.03073 2.42655 9.50354 2.42655 10C2.42655 10.4964 2.47617 10.9693 2.57543 11.4421L2.64986 11.7494Z" fill="white"/>
</svg>
