<svg width="20" height="20" viewBox="0 0 20 20" fill="none" xmlns="http://www.w3.org/2000/svg">
<path id="social-feed-icon" fill-rule="evenodd" clip-rule="evenodd" d="M17.078 20H2.9216C1.31081 20 0 18.6892 0 17.078V2.9216C0 1.3108 1.31081 0 2.9216 0H17.078C18.6892 0 20 1.3108 20 2.9216V17.078C20 18.6892 18.6892 20 17.078 20ZM15.8668 13.3916C15.8668 13.6128 16.0456 13.7916 16.2668 13.7916C16.488 13.7916 16.6668 13.6124 16.6668 13.3916C16.6668 10.7088 15.6196 8.1844 13.7176 6.28281C11.8164 4.38081 9.2916 3.3336 6.6088 3.3336C6.388 3.3336 6.2088 3.5128 6.2088 3.7336C6.2088 3.9544 6.388 4.13361 6.6088 4.13361C9.07761 4.13361 11.4012 5.098 13.152 6.8484C14.9028 8.5988 15.8668 10.9224 15.8668 13.3916ZM12.6476 13.3916C12.6476 13.6128 12.8264 13.7916 13.0476 13.7916C13.2688 13.7916 13.4476 13.6124 13.4476 13.3916C13.4476 11.5676 12.7352 9.8512 11.442 8.558C10.1496 7.2652 8.4328 6.5532 6.6084 6.5532C6.3876 6.5532 6.2084 6.7324 6.2084 6.9532C6.2084 7.174 6.3876 7.3532 6.6084 7.3532C8.21881 7.3532 9.7348 7.982 10.8764 9.1236C12.0188 10.266 12.6476 11.7816 12.6476 13.3916ZM7.21201 15.2C5.88161 15.2 4.79961 14.118 4.79961 12.788C4.79961 11.458 5.882 10.3756 7.21201 10.3756C8.54201 10.3756 9.62401 11.458 9.62401 12.788C9.62401 14.118 8.54201 15.2 7.21201 15.2ZM5.59959 12.7876C5.59959 11.8988 6.3228 11.1752 7.21199 11.1752C8.1008 11.1752 8.82399 11.8992 8.82399 12.788C8.82399 13.6768 8.1008 14.4 7.21199 14.4C6.3232 14.4 5.59959 13.6764 5.59959 12.7876ZM0.800003 2.9216C0.800003 1.7516 1.7516 0.800003 2.9216 0.800003H17.078C18.248 0.800003 19.2 1.7516 19.2 2.9216V17.078C19.2 18.248 18.248 19.2 17.078 19.2H2.9216C1.7516 19.2 0.800003 18.248 0.800003 17.078V2.9216Z" fill="white"/>
</svg>
