<svg width="15" height="20" viewBox="0 0 15 20" fill="none" xmlns="http://www.w3.org/2000/svg">
<path fill-rule="evenodd" clip-rule="evenodd" d="M13.9782 14.4288C13.9782 14.5717 14.0464 14.7145 14.1487 14.7503C15.5182 15.2888 15.1708 17.5003 13.5691 17.5H10.1939C10.0233 18.8928 8.86416 20 7.50039 20C6.13662 20 4.97744 18.8928 4.80703 17.5H1.43178C-0.190165 17.5 -0.504496 15.2835 0.852194 14.7499C0.954366 14.7145 1.0226 14.5713 1.0226 14.4288V8.92873C1.0226 7.07156 1.73855 5.32153 3.00002 4.03579C3.95461 3.1072 5.11391 2.46433 6.37527 2.25004C6.23891 2.00004 6.13662 1.71432 6.13662 1.4286C6.13662 0.642868 6.75039 0 7.50039 0C8.25051 0 8.86416 0.642868 8.86416 1.4286C8.86416 1.75003 8.79592 2.00004 8.62551 2.25004C11.6258 2.82148 13.9782 5.67867 13.9782 9.07159V14.4288ZM8.18227 1.4286C8.18227 1.03574 7.87539 0.714302 7.50039 0.714302C7.12539 0.714302 6.8185 1.03574 6.8185 1.4286C6.8185 1.82146 7.12539 2.1429 7.50039 2.1429C7.87539 2.1429 8.18227 1.82146 8.18227 1.4286ZM7.50039 19.2861C6.47768 19.2861 5.65932 18.5003 5.48891 17.5003H9.51198C9.34145 18.5003 8.52321 19.2861 7.50039 19.2861ZM1.43166 16.786H13.569C14.4193 16.786 14.5755 15.6553 13.9099 15.3928C13.5349 15.2503 13.2963 14.857 13.2963 14.4288V9.07159C13.2963 5.73939 10.7366 2.85719 7.50039 2.85719C6.00027 2.85719 4.56826 3.46435 3.47732 4.57151C2.31814 5.71439 1.70437 7.25013 1.70437 8.92873V14.4288C1.70437 14.8574 1.46572 15.2503 1.09072 15.3931C0.34609 15.8392 0.712301 16.786 1.43166 16.786Z" transform="translate(0.000610352)" fill="#2C3E51"/>
</svg>
