<svg width="20" height="20" viewBox="0 0 20 20" fill="none" xmlns="http://www.w3.org/2000/svg"><path fill-rule="evenodd" clip-rule="evenodd" d="M8.862 19.171c.6 0 1.139-.788 1.139-1.82v-.415h.763v.415c0 1.445-.822 2.649-1.902 2.649h-6.96C.826 20 0 18.788 0 17.35V2.65C0 1.204.822 0 1.902 0h6.96c1.076 0 1.902 1.213 1.902 2.65v.414h-.763V2.65c0-1.025-.543-1.821-1.139-1.821h-6.96c-.6 0-1.139.788-1.139 1.82v14.702c0 1.024.543 1.82 1.139 1.82h6.96zm5.314-14.323l3.834 4.163H6.1v.829h12.673l.148.16-4.745 5.152.54.586 4.744-5.152L20 10l-.54-.586-4.745-5.152-.54.586z" fill="#fff"/></svg>