<svg width="20" height="20" viewBox="0 0 20 20" fill="none" xmlns="http://www.w3.org/2000/svg"><path fill-rule="evenodd" clip-rule="evenodd" d="M.218 13.83l1.415 2.317c.397.662 1.24.898 1.96.59l.992-.425a8.452 8.452 0 0 0 2.407 1.324l.1 1.04C7.165 19.433 7.81 20 8.604 20h2.804c.794 0 1.439-.567 1.513-1.324l.1-1.04a8.452 8.452 0 0 0 2.406-1.324l.993.426c.72.307 1.563.07 1.96-.591l1.415-2.317a1.406 1.406 0 0 0-.447-1.915l-.918-.591A7.74 7.74 0 0 0 18.555 10c0-.45-.05-.875-.124-1.324l.893-.59a1.406 1.406 0 0 0 .447-1.916l-1.415-2.317c-.397-.662-1.24-.898-1.96-.59l-.992.425a8.452 8.452 0 0 0-2.407-1.324l-.1-1.04C12.824.567 12.179 0 11.385 0H8.58c-.794 0-1.439.567-1.513 1.324l-.1 1.04A8.452 8.452 0 0 0 4.56 3.688l-.992-.426c-.72-.307-1.563-.07-1.96.591L.193 6.17A1.435 1.435 0 0 0 .64 8.085l.893.591A7.737 7.737 0 0 0 1.41 10c0 .45.05.875.124 1.324l-.893.59c-.645.45-.819 1.254-.422 1.916zM15 10c0 2.764-2.236 5-5 5s-5-2.236-5-5 2.261-5 5-5 5 2.236 5 5zm-1.005 0A3.989 3.989 0 0 0 10 6.005 3.989 3.989 0 0 0 6.005 10 4.005 4.005 0 0 0 10 13.995 4.005 4.005 0 0 0 13.995 10zM2.65 11.75l-1.414.945a.484.484 0 0 0-.174.662L2.5 15.674a.55.55 0 0 0 .695.213l1.563-.686.248.213a7.735 7.735 0 0 0 2.605 1.442l.298.094.15 1.655a.509.509 0 0 0 .52.473h2.854a.527.527 0 0 0 .52-.473l.15-1.655.297-.094a7.735 7.735 0 0 0 2.606-1.442l.248-.213 1.563.685c.273.095.546.024.695-.212l1.364-2.317c.15-.213.075-.52-.148-.662l-1.415-.946.075-.307c.099-.473.149-.946.149-1.442s-.05-.97-.15-1.442l-.074-.307 1.415-.946a.472.472 0 0 0 .149-.662l-1.415-2.317a.547.547 0 0 0-.695-.213l-1.563.686-.248-.213a7.736 7.736 0 0 0-2.605-1.442l-.298-.094-.149-1.655a.509.509 0 0 0-.521-.473H8.58a.527.527 0 0 0-.52.473L7.91 3.05l-.298.094a7.735 7.735 0 0 0-2.605 1.442L4.76 4.8l-1.563-.686c-.273-.094-.546-.023-.695.213L1.087 6.643c-.15.213-.075.52.149.662l1.414.946-.075.307c-.099.473-.148.946-.148 1.442s.05.97.148 1.442l.075.307z" fill="#fff"/></svg>