<svg width="218" height="218" viewBox="0 0 218 218" fill="none" xmlns="http://www.w3.org/2000/svg">
<g id="Rectangle 2 Copy 2" filter="url(#filter0_d)">
<path fill-rule="evenodd" clip-rule="evenodd" d="M0 10C0 4.47715 4.47715 0 10 0H190C195.523 0 200 4.47715 200 10V190C200 195.523 195.523 200 190 200H10C4.47715 200 0 195.523 0 190V10Z" transform="translate(9 7)" fill="#F93F2D"/>
<path fill-rule="evenodd" clip-rule="evenodd" d="M0 10C0 4.47715 4.47715 0 10 0H190C195.523 0 200 4.47715 200 10V190C200 195.523 195.523 200 190 200H10C4.47715 200 0 195.523 0 190V10Z" transform="translate(9 7)" fill="url(#paint0_linear)"/>
</g>
<defs>
<filter id="filter0_d" x="0" y="0" width="218" height="218" filterUnits="userSpaceOnUse" color-interpolation-filters="sRGB">
<feFlood flood-opacity="0" result="BackgroundImageFix"/>
<feColorMatrix in="SourceAlpha" type="matrix" values="0 0 0 0 0 0 0 0 0 0 0 0 0 0 0 0 0 0 255 0"/>
<feOffset dy="2"/>
<feGaussianBlur stdDeviation="4.5"/>
<feColorMatrix type="matrix" values="0 0 0 0 0 0 0 0 0 0 0 0 0 0 0 0 0 0 0.03 0"/>
<feBlend mode="normal" in2="BackgroundImageFix" result="effect1_dropShadow"/>
<feBlend mode="normal" in="SourceGraphic" in2="effect1_dropShadow" result="shape"/>
</filter>
<linearGradient id="paint0_linear" x2="1" gradientUnits="userSpaceOnUse" gradientTransform="translate(100) scale(200) rotate(90)">
<stop stop-color="#F93F2D"/>
<stop offset="1" stop-color="#C73F2D"/>
</linearGradient>
</defs>
</svg>
